<?xml version="1.0" standalone="no"?>
<!DOCTYPE svg PUBLIC "-//W3C//DTD SVG 20010904//EN"
 "http://www.w3.org/TR/2001/REC-SVG-20010904/DTD/svg10.dtd">
<svg version="1.0" xmlns="http://www.w3.org/2000/svg"
 width="60.000000pt" height="60.000000pt" viewBox="0 0 60.000000 60.000000"
 preserveAspectRatio="xMidYMid meet">
<metadata>
Created by potrace 1.16, written by Peter Selinger 2001-2019
</metadata>
<g transform="translate(0.000000,60.000000) scale(0.100000,-0.100000)"
fill="#000000" stroke="none">
<path d="M8 321 c-2 -136 -2 -265 0 -285 l4 -36 294 0 294 0 0 285 0 285 -294
0 -293 0 -5 -249z m501 224 c47 -24 53 -54 49 -259 l-3 -186 -27 -27 c-27 -26
-31 -27 -172 -31 -182 -6 -248 2 -284 33 l-27 23 -3 187 c-4 203 2 235 47 260
38 21 380 21 420 0z"/>
<path d="M110 395 c-7 -8 -10 -21 -7 -30 4 -8 1 -17 -5 -21 -7 -4 -6 -9 3 -14
8 -5 13 -35 13 -87 1 -65 5 -84 24 -110 48 -67 116 -77 207 -32 42 21 46 21
63 6 35 -31 86 -11 76 30 -3 11 4 36 16 56 29 48 38 102 16 94 -12 -5 -14 0
-9 25 5 24 3 29 -7 23 -10 -6 -12 -4 -7 8 3 10 2 17 -3 17 -6 0 -10 -10 -10
-22 0 -13 -5 -30 -10 -38 -7 -11 -9 -3 -8 28 1 28 -4 47 -13 53 -10 6 -15 3
-17 -13 -3 -17 -6 -18 -13 -7 -7 11 -9 10 -9 -5 0 -14 -3 -16 -13 -8 -6 6 -27
9 -45 8 -25 -2 -38 4 -53 22 -10 14 -19 20 -19 14 0 -27 37 -53 78 -56 23 -2
45 -6 48 -9 8 -8 -16 -77 -27 -77 -5 0 -9 -6 -9 -13 0 -20 -53 -67 -76 -67
-22 0 -64 34 -64 52 0 7 -13 8 -36 5 -29 -5 -35 -3 -30 9 3 9 1 12 -4 9 -6 -3
-10 -17 -10 -31 0 -14 -4 -22 -10 -19 -13 8 -13 115 0 115 5 0 9 -10 7 -22 -1
-15 3 -23 13 -23 9 0 14 10 14 25 1 18 -6 26 -22 28 -14 2 -22 10 -22 23 0 10
-5 19 -10 19 -7 0 -7 7 0 21 14 25 7 35 -10 14z m371 -122 c-12 -20 -14 -14
-5 12 4 9 9 14 11 11 3 -2 0 -13 -6 -23z m9 -47 c0 -30 -26 -54 -42 -38 -9 9
-9 18 0 37 15 32 42 33 42 1z m-260 -106 c0 -5 -7 -10 -16 -10 -8 0 -12 5 -9
10 3 6 10 10 16 10 5 0 9 -4 9 -10z"/>
<path d="M160 390 c-6 -11 -16 -17 -22 -14 -8 5 -9 1 -5 -10 4 -10 7 -20 7
-22 0 -2 8 -4 18 -4 13 0 14 2 3 9 -9 6 -10 11 -2 15 17 11 34 46 22 46 -6 0
-15 -9 -21 -20z"/>
<path d="M316 377 c3 -10 9 -15 12 -12 3 3 0 11 -7 18 -10 9 -11 8 -5 -6z"/>
<path d="M276 301 c-9 -13 4 -41 18 -41 16 0 36 21 36 37 0 15 -46 18 -54 4z"/>
</g>
</svg>
